<svg width="35" height="35" viewBox="0 0 35 35" fill="none" xmlns="http://www.w3.org/2000/svg">
<path d="M29.8731 5.12396C28.2497 3.497 26.3209 2.20681 24.1974 1.32749C22.0739 0.448161 19.7976 -0.00296641 17.4993 1.46784e-05C7.83465 1.46784e-05 0 7.83466 0 17.4993C0 22.3316 1.95976 26.7075 5.12686 29.8746C6.75026 31.5016 8.6791 32.7918 10.8026 33.6711C12.9261 34.5504 15.2024 35.0015 17.5007 34.9986C27.1654 34.9986 35 27.1639 35 17.4993C35 12.667 33.0402 8.29106 29.8731 5.12396ZM27.6247 27.6189C26.2966 28.9503 24.7186 30.0062 22.9812 30.7259C21.2438 31.4456 19.3813 31.8149 17.5007 31.8125C9.59318 31.8125 3.18314 25.4025 3.18314 17.4949C3.18079 15.6144 3.55006 13.7519 4.26974 12.0145C4.98942 10.2771 6.04533 8.69902 7.37679 7.37097C8.70452 6.03949 10.2823 4.98356 12.0195 4.26387C13.7566 3.54418 15.6189 3.17492 17.4993 3.17733C25.4054 3.17733 31.8154 9.58736 31.8154 17.4935C31.8179 19.3738 31.4487 21.2361 30.729 22.9733C30.0093 24.7105 28.9533 26.2883 27.6218 27.6159L27.6247 27.6189Z" fill="#E82E7C"/>
<path d="M19.7492 17.5008L25.3704 11.8796C25.6477 11.5774 25.7975 11.1797 25.7886 10.7696C25.7797 10.3596 25.6128 9.9688 25.3227 9.67887C25.0326 9.38894 24.6417 9.22226 24.2316 9.21364C23.8215 9.20501 23.424 9.3551 23.1219 9.63258L23.1234 9.63112L17.5022 15.2523L11.881 9.63112C11.5788 9.35384 11.1812 9.20401 10.7711 9.2129C10.361 9.22179 9.97025 9.38872 9.68031 9.67884C9.39038 9.96896 9.22371 10.3598 9.21508 10.7699C9.20646 11.18 9.35655 11.5775 9.63403 11.8796L9.63257 11.8781L15.2537 17.4993L9.63257 23.1205C9.47441 23.2656 9.34725 23.4412 9.25875 23.6367C9.17024 23.8322 9.12221 24.0437 9.11756 24.2582C9.11291 24.4728 9.15173 24.6861 9.23167 24.8853C9.31162 25.0845 9.43105 25.2654 9.58277 25.4173C9.73449 25.5691 9.91536 25.6886 10.1145 25.7687C10.3136 25.8488 10.5269 25.8877 10.7415 25.8832C10.9561 25.8787 11.1675 25.8308 11.3631 25.7424C11.5587 25.6541 11.7344 25.527 11.8796 25.3689L11.881 25.3675L17.5022 19.7463L23.1234 25.3675C23.2685 25.5256 23.4441 25.6528 23.6396 25.7413C23.8351 25.8298 24.0466 25.8778 24.2611 25.8825C24.4757 25.8871 24.689 25.8483 24.8882 25.7684C25.0874 25.6884 25.2683 25.569 25.4202 25.4173C25.572 25.2656 25.6915 25.0847 25.7716 24.8856C25.8517 24.6864 25.8906 24.4732 25.8861 24.2586C25.8816 24.044 25.8337 23.8325 25.7453 23.6369C25.657 23.4414 25.5299 23.2657 25.3718 23.1205L25.3704 23.119L19.7492 17.5008Z" fill="#E82E7C"/>
</svg>
