<svg width="52" height="52" viewBox="0 0 52 52" fill="none" xmlns="http://www.w3.org/2000/svg">
<path d="M25.87 41.6C26.78 41.6 27.5496 41.2854 28.1788 40.6562C28.808 40.027 29.1217 39.2583 29.12 38.35C29.12 37.44 28.8063 36.6704 28.1788 36.0412C27.5513 35.412 26.7817 35.0983 25.87 35.1C24.96 35.1 24.1913 35.4146 23.5638 36.0438C22.9363 36.673 22.6217 37.4417 22.62 38.35C22.62 39.26 22.9346 40.0296 23.5638 40.6588C24.193 41.288 24.9617 41.6017 25.87 41.6ZM23.53 31.59H28.34C28.34 30.16 28.5029 29.0333 28.8288 28.21C29.1547 27.3867 30.0751 26.26 31.59 24.83C32.7167 23.7033 33.605 22.6304 34.255 21.6112C34.905 20.592 35.23 19.3683 35.23 17.94C35.23 15.5133 34.3417 13.65 32.565 12.35C30.7883 11.05 28.6867 10.4 26.26 10.4C23.79 10.4 21.7863 11.05 20.2488 12.35C18.7113 13.65 17.6384 15.21 17.03 17.03L21.32 18.72C21.5367 17.94 22.0246 17.095 22.7838 16.185C23.543 15.275 24.7017 14.82 26.26 14.82C27.6467 14.82 28.6867 15.1996 29.38 15.9588C30.0733 16.718 30.42 17.5517 30.42 18.46C30.42 19.3267 30.16 20.1396 29.64 20.8988C29.12 21.658 28.47 22.3617 27.69 23.01C25.7833 24.7 24.6133 25.9783 24.18 26.845C23.7467 27.7117 23.53 29.2933 23.53 31.59ZM26 52C22.4033 52 19.0233 51.3179 15.86 49.9538C12.6967 48.5897 9.945 46.7367 7.605 44.395C5.265 42.055 3.41293 39.3033 2.0488 36.14C0.684667 32.9767 0.00173333 29.5967 0 26C0 22.4033 0.682933 19.0233 2.0488 15.86C3.41467 12.6967 5.26673 9.945 7.605 7.605C9.945 5.265 12.6967 3.41293 15.86 2.0488C19.0233 0.684667 22.4033 0.00173333 26 0C29.5967 0 32.9767 0.682933 36.14 2.0488C39.3033 3.41467 42.055 5.26673 44.395 7.605C46.735 9.945 48.5879 12.6967 49.9538 15.86C51.3197 19.0233 52.0017 22.4033 52 26C52 29.5967 51.3171 32.9767 49.9512 36.14C48.5853 39.3033 46.7333 42.055 44.395 44.395C42.055 46.735 39.3033 48.5879 36.14 49.9538C32.9767 51.3197 29.5967 52.0017 26 52ZM26 46.8C31.8067 46.8 36.725 44.785 40.755 40.755C44.785 36.725 46.8 31.8067 46.8 26C46.8 20.1933 44.785 15.275 40.755 11.245C36.725 7.215 31.8067 5.2 26 5.2C20.1933 5.2 15.275 7.215 11.245 11.245C7.215 15.275 5.2 20.1933 5.2 26C5.2 31.8067 7.215 36.725 11.245 40.755C15.275 44.785 20.1933 46.8 26 46.8Z" fill="#E82E7C"/>
</svg>
